# xmcd
#
# Track frame offsets:
#	150
#	9650
#	27220
#	44524
#	60844
#	79945
#	96329
#	111682
#	126708
#	144978
#	161138
#	174196
#
# Disc length: 2538
#
# Revision: 1
# Processed by: cddbd v1.5.1PL0 Copyright (c) Steve Scherf et al.
# Submitted via: CDex 1.50beta9
# Normalized: r0:TDELIM( - )
#
DISCID=a409e80c
DTITLE=Various Artist - Today's Country Hits - Vol 1
DYEAR=2001
DGENRE=Country
TTITLE0=George Strait - Don't Make Me Come Over There and Love You
TTITLE1=Vince Gill - Shoot Straight From Your Heart
TTITLE2=Lonestar - Tell Her
TTITLE3=Martina McBride - It's My Time
TTITLE4=Hal Ketchum - She Is
TTITLE5=Sawyer Brown - Lookin' For Love
TTITLE6=Patty Loveless - The Last Thing On My Mind
TTITLE7=Billy Ray Cyrus - Burn Down The Trailer Park
TTITLE8=Travis Tritt - It's A Great Day To Be Alive
TTITLE9=Pam Tillis - Please
TTITLE10=Trick Pony - Pour Me
TTITLE11=Faith Hill - If My Heart Had Wings
EXTD=YEAR: 2001
EXTT0=
EXTT1=
EXTT2=
EXTT3=
EXTT4=
EXTT5=
EXTT6=
EXTT7=
EXTT8=
EXTT9=
EXTT10=
EXTT11=
PLAYORDER=
